<svg version="1.1" id="Layer_1" xmlns="http://www.w3.org/2000/svg" xmlns:xlink="http://www.w3.org/1999/xlink" x="0px" y="0px"
	 width="100%" viewBox="0 0 225 225" enable-background="new 0 0 225 225" xml:space="preserve">
<path fill="#FFFEFE" opacity="1.000000" stroke="none" 
	d="
M127.000000,226.000000 
	C84.666672,226.000000 42.833340,226.000000 1.000006,226.000000 
	C1.000004,151.000000 1.000004,76.000015 1.000002,1.000016 
	C75.999992,1.000010 150.999985,1.000010 225.999969,1.000005 
	C225.999985,75.999985 225.999985,150.999969 226.000000,225.999969 
	C193.166672,226.000000 160.333328,226.000000 127.000000,226.000000 
M101.890160,163.331665 
	C101.438530,163.181076 100.986893,163.030487 100.166084,162.390259 
	C89.346382,151.577484 78.419342,140.869400 67.740585,129.919174 
	C59.030209,120.987373 57.998276,108.056419 66.231773,99.289093 
	C78.045670,86.709244 90.714226,74.932022 103.795807,62.897011 
	C114.720299,58.797359 123.911270,61.275196 131.774506,69.859741 
	C136.495010,75.013268 141.608032,79.808884 146.576965,84.732758 
	C151.884262,89.991920 158.292511,90.406349 162.922333,85.840576 
	C167.495087,81.331062 167.184509,74.659775 162.083450,69.471809 
	C156.595734,63.890594 151.041977,58.374401 145.533203,52.813816 
	C139.671265,46.896751 132.850449,42.628880 125.027107,40.031418 
	C130.988708,34.004303 137.059097,28.079994 142.880417,21.920307 
	C148.377472,16.103725 146.913879,8.407122 139.263367,4.091151 
	C135.465286,3.029374 131.816727,2.837668 128.108521,6.119925 
	C103.165558,31.091730 78.226517,56.067448 53.278358,81.034050 
	C34.585354,99.740883 34.292088,126.783981 52.725067,145.655487 
	C62.613121,155.778763 72.676460,165.731598 82.723907,175.697617 
	C84.237602,177.199051 86.097099,178.351852 88.261848,180.268158 
	C107.281136,192.682358 129.549377,190.419342 145.611633,174.413635 
	C151.145370,168.899384 156.680756,163.385193 162.123581,157.781815 
	C167.199478,152.556168 167.448654,145.814545 162.878998,141.432587 
	C158.194885,136.940918 151.882217,137.359802 146.551804,142.633652 
	C140.997772,148.128754 135.511063,153.692307 130.024063,159.254684 
	C124.041962,165.318985 116.796478,167.243179 108.562569,165.781448 
	C106.321732,165.383652 104.143677,164.632278 101.986404,163.996323 
	C101.986404,163.996323 101.967842,164.061935 101.890160,163.331665 
M156.500000,124.875031 
	C164.824600,124.875031 173.149261,124.897476 181.473770,124.868515 
	C189.268570,124.841385 194.071930,120.659843 194.137039,113.914429 
	C194.205826,106.787498 189.949814,102.995140 181.760956,102.989220 
	C157.619644,102.971779 133.478302,102.972282 109.336983,102.989021 
	C101.133606,102.994713 96.859543,106.773506 96.868637,113.914238 
	C96.877129,120.585403 101.775108,124.854767 109.548248,124.867584 
	C124.865456,124.892853 140.182739,124.874855 156.500000,124.875031 
z"/>
<path fill="#090908" opacity="1.000000" stroke="none" 
	d="
M139.833252,4.625736 
	C146.913879,8.407122 148.377472,16.103725 142.880417,21.920307 
	C137.059097,28.079994 130.988708,34.004303 124.557350,40.459305 
	C117.064369,48.195511 110.041138,55.503826 103.017906,62.812145 
	C90.714226,74.932022 78.045670,86.709244 66.231773,99.289093 
	C57.998276,108.056419 59.030209,120.987373 67.740585,129.919174 
	C78.419342,140.869400 89.346382,151.577484 100.491287,162.979797 
	C101.200272,163.733536 101.584053,163.897736 101.967842,164.061935 
	C101.967842,164.061935 101.986404,163.996323 101.771805,164.433441 
	C103.416985,175.298920 98.474831,180.612717 87.796638,179.665924 
	C86.097099,178.351852 84.237602,177.199051 82.723907,175.697617 
	C72.676460,165.731598 62.613121,155.778763 52.725067,145.655487 
	C34.292088,126.783981 34.585354,99.740883 53.278358,81.034050 
	C78.226517,56.067448 103.165558,31.091730 128.860275,6.032454 
	C133.019104,5.505234 136.426178,5.065485 139.833252,4.625736 
z"/>
<path fill="#B5B3B2" opacity="1.000000" stroke="none" 
	d="
M156.000000,124.874893 
	C140.182739,124.874855 124.865456,124.892853 109.548248,124.867584 
	C101.775108,124.854767 96.877129,120.585403 96.868637,113.914238 
	C96.859543,106.773506 101.133606,102.994713 109.336983,102.989021 
	C133.478302,102.972282 157.619644,102.971779 181.760956,102.989220 
	C189.949814,102.995140 194.205826,106.787498 194.137039,113.914429 
	C194.071930,120.659843 189.268570,124.841385 181.473770,124.868515 
	C173.149261,124.897476 164.824600,124.875031 156.000000,124.874893 
z"/>
<path fill="#F89F1B" opacity="1.000000" stroke="none" 
	d="
M88.029243,179.967041 
	C98.474831,180.612717 103.416985,175.298920 101.747009,164.456863 
	C104.143677,164.632278 106.321732,165.383652 108.562569,165.781448 
	C116.796478,167.243179 124.041962,165.318985 130.024063,159.254684 
	C135.511063,153.692307 140.997772,148.128754 146.551804,142.633652 
	C151.882217,137.359802 158.194885,136.940918 162.878998,141.432587 
	C167.448654,145.814545 167.199478,152.556168 162.123581,157.781815 
	C156.680756,163.385193 151.145370,168.899384 145.611633,174.413635 
	C129.549377,190.419342 107.281136,192.682358 88.029243,179.967041 
z"/>
<path fill="#F79F1C" opacity="1.000000" stroke="none" 
	d="
M103.406860,62.854576 
	C110.041138,55.503826 117.064369,48.195511 124.397934,40.748100 
	C132.850449,42.628880 139.671265,46.896751 145.533203,52.813816 
	C151.041977,58.374401 156.595734,63.890594 162.083450,69.471809 
	C167.184509,74.659775 167.495087,81.331062 162.922333,85.840576 
	C158.292511,90.406349 151.884262,89.991920 146.576965,84.732758 
	C141.608032,79.808884 136.495010,75.013268 131.774506,69.859741 
	C123.911270,61.275196 114.720299,58.797359 103.406860,62.854576 
z"/>
<path fill="#020202" opacity="1.000000" stroke="none" 
	d="
M139.548309,4.358444 
	C136.426178,5.065485 133.019104,5.505234 129.169830,5.923305 
	C131.816727,2.837668 135.465286,3.029374 139.548309,4.358444 
z"/>
<path fill="#F89F1B" opacity="1.000000" stroke="none" 
	d="
M101.929001,163.696808 
	C101.584053,163.897736 101.200272,163.733536 100.675873,163.224609 
	C100.986893,163.030487 101.438530,163.181076 101.929001,163.696808 
z"/>
</svg>